PathFileType	4	(X/Y/Z)	C:/Users/opensim2020/Desktop/walking_exp_matlab/subject02_walking10_straight_02.trc	
DataRate	CameraRate	NumFrames	NumMarkers	Units	OrigDataRate	OrigDataStartFrame	OrigNumFrames	
100.00	100.00	4	43	mm	100.00	1610	280	
Frame#	Time	LFHD			RFHD			LBHD			RBHD			C7			T10			CLAV			STRN			RBAK			LSHO			LUPA			LELB			LFRM			LWRA			LWRB			LFIN			RSHO			RUPA			RELB			RFRM			RWRA			RWRB			RFIN			LASI			RASI			LPSI			RPSI			LTHI			LKNE			LTIB			LANK			LHEE			LTOE			RTHI			RKNE			RTIB			RANK			RHEE			RTOE			*39			*40			*41			*42			
		X1	Y1	Z1	X2	Y2	Z2	X3	Y3	Z3	X4	Y4	Z4	X5	Y5	Z5	X6	Y6	Z6	X7	Y7	Z7	X8	Y8	Z8	X9	Y9	Z9	X10	Y10	Z10	X11	Y11	Z11	X12	Y12	Z12	X13	Y13	Z13	X14	Y14	Z14	X15	Y15	Z15	X16	Y16	Z16	X17	Y17	Z17	X18	Y18	Z18	X19	Y19	Z19	X20	Y20	Z20	X21	Y21	Z21	X22	Y22	Z22	X23	Y23	Z23	X24	Y24	Z24	X25	Y25	Z25	X26	Y26	Z26	X27	Y27	Z27	X28	Y28	Z28	X29	Y29	Z29	X30	Y30	Z30	X31	Y31	Z31	X32	Y32	Z32	X33	Y33	Z33	X34	Y34	Z34	X35	Y35	Z35	X36	Y36	Z36	X37	Y37	Z37	X38	Y38	Z38	X39	Y39	Z39	X40	Y40	Z40	X41	Y41	Z41	X42	Y42	Z42	X43	Y43	Z43	

211	2.100	-953.24548	-547.69214	1735.99133	-1095.14709	-543.47516	1714.73413	-941.57495	-410.97940	1674.95801	-1082.67078	-394.16992	1652.60645	-1007.93805	-350.00385	1529.25916	-1004.89410	-297.21857	1250.80383	-1000.69556	-488.11740	1459.34216	-1014.75677	-540.41547	1288.47998	-1067.67517	-288.68509	1353.23816	-829.67090	-426.18228	1502.90381	-738.23077	-438.38333	1305.13904	-718.84210	-458.43820	1166.50989	-705.09015	-497.85315	1040.58301	-740.18085	-576.32916	929.72925	-702.15546	-534.85297	923.68750	-697.75757	-570.40784	867.35040	-1196.02185	-421.62552	1494.71191	-1278.98914	-390.81174	1303.33936	-1297.28345	-405.75378	1157.28992	-1314.79688	-444.92859	1042.24121	-1292.38232	-503.66003	920.84662	-1325.70605	-458.55130	912.82019	-1325.91284	-502.11539	853.75867	-888.28033	-546.01221	995.80817	-1142.24072	-522.76013	980.08228	-951.47864	-328.73996	1034.30371	-1066.09619	-314.47922	1032.69019	-841.46307	-488.80676	679.53198	-875.89160	-452.76428	477.61151	-880.92126	-394.92303	289.84909	-928.06158	-395.03174	68.79933	-980.03528	-358.08609	41.83410	-918.80688	-551.75378	31.89135	-1229.73962	-476.15430	677.94910	-1220.91956	-514.29230	480.04083	-1204.89819	-402.21573	333.58591	-1158.84961	-316.78293	163.86183	-1090.51062	-286.41721	118.84368	-1221.79956	-413.05038	54.69210	-1042.43713	-451.05399	1809.14087									 
212	2.110	-953.48529	-555.72357	1735.90637	-1095.35168	-551.09961	1714.02209	-941.51331	-418.96255	1674.89807	-1082.55396	-401.67609	1652.61792	-1007.19427	-356.97794	1529.42664	-1004.69043	-303.83322	1251.07007	-1000.31622	-495.28711	1459.32715	-1014.05371	-547.27637	1288.38770	-1067.58984	-295.16116	1353.47375	-829.33167	-433.90948	1503.30737	-737.12561	-448.59000	1306.39636	-717.32813	-470.23462	1167.74365	-703.86121	-512.31458	1042.52234	-739.84717	-591.63782	932.74945	-701.23151	-550.14032	925.88654	-697.28955	-586.82056	870.21655	-1195.51208	-428.16196	1494.35376	-1278.17004	-396.02228	1303.20691	-1296.76074	-410.56619	1157.10632	-1314.24438	-449.56042	1041.86621	-1292.29797	-508.11453	920.38635	-1325.28723	-462.98441	912.50861	-1325.79163	-506.55856	853.46161	-886.90698	-551.57062	995.03851	-1141.28601	-529.81207	980.52875	-951.92816	-335.01028	1034.17700	-1066.50342	-320.90399	1033.30212	-841.72968	-492.86777	678.98297	-876.01532	-455.12161	477.46643	-881.21533	-396.00177	290.05203	-928.24860	-395.15662	68.95918	-980.00592	-358.17133	42.10667	-918.67719	-551.77734	31.82155	-1229.67017	-485.65521	678.87518	-1220.63867	-527.05316	480.76178	-1205.81152	-420.10724	330.18558	-1161.19006	-340.34790	157.52856	-1093.25049	-311.18588	110.93700	-1223.31458	-441.63248	52.59820	-1042.34094	-459.06161	1808.83813									 
213	2.120	-954.28772	-564.07953	1735.31592	-1096.04858	-558.90326	1713.35217	-941.58789	-426.81287	1675.10571	-1082.50244	-409.09662	1652.57275	-1006.84833	-364.49976	1529.57678	-1004.62152	-310.48209	1251.26086	-1000.08459	-502.46005	1459.15833	-1013.41370	-554.08185	1288.14893	-1066.96240	-301.79913	1353.76782	-829.07275	-441.58527	1503.58948	-736.37708	-458.63660	1307.27087	-716.01050	-482.10107	1168.88660	-702.66565	-526.12091	1044.27417	-739.52466	-606.29041	935.56567	-700.45453	-565.51178	928.16846	-696.92090	-602.66974	872.69678	-1195.14514	-434.64673	1493.86804	-1277.56104	-401.24747	1302.95264	-1296.38342	-415.41815	1156.88574	-1314.00378	-454.00116	1041.33105	-1292.50574	-512.77509	919.96948	-1324.96033	-467.47314	912.06500	-1325.79419	-510.89651	853.12744	-885.64111	-557.24298	994.02454	-1140.62048	-537.47009	980.96429	-952.20911	-340.77008	1034.16064	-1066.81165	-327.33795	1033.62805	-841.88586	-496.61899	678.67920	-876.20856	-457.73117	477.27344	-881.35168	-397.48804	290.25082	-928.48071	-395.29831	69.05290	-980.39026	-358.22696	42.13505	-918.55493	-551.86865	31.77156	-1229.66748	-495.15292	679.66290	-1220.27124	-539.67957	481.58496	-1206.90808	-437.88864	327.08505	-1163.63574	-364.18237	151.26137	-1096.23230	-336.05261	103.33655	-1224.94116	-470.29318	50.85464	-1043.22852	-467.52402	1808.70337									 
214	2.130	-954.77386	-572.28052	1735.06799	-1096.49353	-566.45178	1712.41272	-941.72882	-434.65021	1675.27112	-1082.42053	-416.64102	1652.36792	-1006.20020	-371.49930	1529.42908	-1004.56689	-317.15759	1251.38489	-999.91711	-509.53668	1458.92798	-1012.79968	-560.89081	1287.80933	-1066.29749	-308.55850	1353.72363	-828.88794	-449.16309	1503.74780	-735.76935	-468.17203	1307.89990	-714.79156	-493.56039	1169.90027	-701.86298	-538.89435	1045.90503	-739.36755	-620.79364	938.33417	-699.89063	-580.63007	930.35211	-696.67694	-619.06287	875.73529	-1194.95264	-441.26120	1493.19666	-1276.96667	-406.54929	1302.55273	-1296.34534	-420.30383	1156.57227	-1313.91089	-459.05283	1041.02869	-1292.79724	-517.86163	919.67413	-1324.71680	-472.01031	911.48218	-1325.93481	-515.37524	852.56360	-884.59943	-562.92877	992.85687	-1140.07800	-544.24432	981.12177	-952.56335	-346.75156	1034.05493	-1067.11523	-333.71152	1033.69275	-842.16156	-500.48685	678.20038	-876.38635	-460.58102	477.02789	-881.50195	-399.24344	290.37814	-928.65302	-395.44894	69.18024	-980.36493	-358.13513	42.27653	-918.42987	-551.95081	31.70127	-1229.70203	-504.67606	680.42303	-1219.93518	-552.06854	482.37448	-1207.94458	-455.74753	323.93463	-1166.25464	-388.13309	145.30273	-1099.33862	-361.19995	96.00778	-1226.78894	-498.79666	49.47438	-1043.84741	-475.72549	1808.66248									 
